# xmcd
#
# Track frame offsets: 
#        150
#        19925
#        36915
#        49513
#        60770
#        75484
#        87218
#        100193
#        111235
#        127235
#        140160
#        158065
#        169501
#        180209
#        194706
#        209178
#        221771
#        238273
#        250787
#        263367
#        276797
#        291323
#
# Disc length: 4044 seconds
#
# Revision: 0
# Processed by: cddbd v1.5.2PL0 Copyright (c) Steve Scherf et al.
# Submitted via: ExactAudioCopy v0.90b4
#
DISCID=410fca16
DTITLE=Leon Russell - Best of Hank Wilson
DYEAR=2009
DGENRE=Country
TTITLE0=Roll in my Sweet Baby's Arms
TTITLE1=He Stopped Loving Her Today
TTITLE2=Mystery Train
TTITLE3=Oh Lonesome Me
TTITLE4=I'm So Lonesome I Could Cry
TTITLE5=I'll Sail My Ship Alone
TTITLE6=Columbus Stockade Blues
TTITLE7=I'm Movin' On
TTITLE8=Tumbling Tumbleweeds
TTITLE9=Jambalya
TTITLE10=Sweet Dreams
TTITLE11=In The Pines
TTITLE12=Heartaches by the Number
TTITLE13=I Believe to my Soul
TTITLE14=Funny How Time Slips Away
TTITLE15=Footprints in the Snow
TTITLE16=Night Life
TTITLE17=Sixteen Tons
TTITLE18=Wabash Cannonball
TTITLE19=San Antonio Rose
TTITLE20=You Win Again
TTITLE21=Ballad of Jed Clampett
EXTD=
EXTT0=
EXTT1=
EXTT2=
EXTT3=
EXTT4=
EXTT5=
EXTT6=
EXTT7=
EXTT8=
EXTT9=
EXTT10=
EXTT11=
EXTT12=
EXTT13=
EXTT14=
EXTT15=
EXTT16=
EXTT17=
EXTT18=
EXTT19=
EXTT20=
EXTT21=
PLAYORDER=
